<svg version="1" xmlns="http://www.w3.org/2000/svg" width="933.333" height="933.333" viewBox="0 0 700.000000 700.000000"><path d="M327.8.4c-.1.2-4.1.6-8.8 1-8.7.7-10.5.9-22.5 2.7-11.6 1.8-12.3 1.9-19.2 3.5-15.4 3.4-20.3 4.7-31.3 8.1-45.8 14-91.6 39.9-128.5 72.7-35.9 31.9-68.1 75.5-86 116.6-2.5 5.8-5 11.4-5.5 12.5-4.5 9.3-15 42.7-17.6 56-.2 1.1-1 5.4-1.9 9.5-2.9 14.7-3.5 19.3-5.2 37-1.5 16.3-.8 59.2 1.2 71.1.2 1.3.6 4.6.9 7.4.9 7.8 2.3 15.6 5.1 28.5 2.3 10.7 8.8 33.3 11.4 39.5.5 1.1 2.6 6.5 4.6 12 6.4 16.8 24.9 53.1 31.2 61 .4.6 3.4 4.9 6.5 9.5 17 25.5 43.3 53.5 70.8 75.5 9.2 7.4 37 26.5 38.6 26.5.4 0 1.5.6 2.3 1.4 2.9 2.5 30.4 16.1 43.1 21.3 26.9 11 57.7 19.4 83.5 22.8 2.2.2 5.6.7 7.5 1 18.6 2.6 69.7 2.7 83.7.1 1.7-.3 10.4-1.6 14.8-2.1 32.1-4.1 82.9-22 115.3-40.6 4.7-2.7 8.7-4.9 8.9-4.9.2 0 .9-.5 1.6-1 .7-.6 6.2-4.3 12.2-8.3 25.3-16.8 49.2-37.6 67.8-59.2 3.3-3.9 6.3-7.2 6.7-7.5.4-.3 4.4-5.5 9-11.5 10.3-13.5 20.9-29.7 28.2-43 5.2-9.6 15.8-31 15.8-32.1 0-.3.8-2.4 1.9-4.7 5.3-11.8 14.7-41.7 17.7-56.2 1.7-8.1 5.4-30.1 5.9-35 .4-3.3.9-7.1 1.1-8.5.9-4.7 1.1-52.5.3-60.5-1.5-16.5-2.1-22-2.4-22.5-.2-.3-.6-3-1-6-.9-7.6-6.9-34-9.6-42.5-1.2-3.9-2.4-7.7-2.5-8.6-.6-3-9.7-26.4-14.1-36.4-21.3-47.7-54.5-91.3-96.3-126.3-6.8-5.7-30.7-23.2-35.1-25.7-1-.5-4.9-2.9-8.6-5.1-8.6-5.3-29.8-16.3-38.3-19.9-3.6-1.5-8.3-3.5-10.5-4.5-11.9-5.2-41.6-14.2-58-17.5-4.4-.9-8.9-1.9-10-2.1-1.1-.2-3.8-.6-6-.9-2.2-.3-5.1-.7-6.5-1-1.3-.2-5.2-.7-8.6-1.1-3.3-.3-7.4-.8-9-1-3.2-.5-54-1.4-54.6-1zm154.3 175.7c27.9 4.8 50.2 16.2 70.5 36.4 18 17.8 29.5 37 38.8 64.7 1.9 5.9 3.8 11.7 4 13 .3 1.3 1.2 5.2 2 8.8.8 3.6 1.7 8.3 2 10.5.4 2.3.8 5 1 6 .5 2.5 1.6 12.3 2.1 19.5.6 6.8.6 40.4.1 44.5-.2 1.6-.7 7-1.1 12-.4 4.9-.8 9.2-1 9.5-.2.3-.6 2.7-.9 5.5-.3 2.7-.8 6.3-1.1 8-8.9 46.3-27.2 83.5-52.9 107.6-8.1 7.6-9.7 8.8-17.3 14-16.4 11.1-37.3 19.3-54.8 21.4-2.2.3-5.8.8-8 1.1-5.1.9-27.5.8-35.7-.1-40.2-4.3-76-22.9-97.4-50.5-12.2-15.7-20.2-33.7-23-51.8-.7-4.2-.7-4.3-.5-5.7.1-.7 12.5-1 36.4-.9 19.9.1 36.5.2 36.8.3.3 0 1.6 2.6 2.8 5.7 4.9 12.9 14.2 22.8 27.6 29.5 19.9 9.8 47.6 9.7 65.5-.3 18.1-10.1 31.4-26.3 40.2-48.8 2.7-7 6.3-20.1 7.3-26.4.3-2.1.7-4.8 1-6 .2-1.2.7-4.8 1-8.1l.6-6-3.2 3.9c-14.7 17.6-37.7 30.2-63.4 34.7-7.7 1.3-25.7 1.7-34.8.6-55.4-6.5-97-41.7-109.5-92.7-1.2-4.7-2.6-11.7-3.1-15.5-1-7-.8-32.8.3-37.5.3-1.4 1.1-5 1.7-8 4.9-23.9 22.6-51.9 43.1-68.3 20.3-16.2 48.2-28.3 72.3-31.2 2.7-.3 5-.7 5.2-.9.2-.2 8.1-.4 17.6-.3 11.9 0 20.5.5 27.8 1.8zm-214 2.7c0 .4.1 85.2.2 188.5l.2 187.7H187V286.8l-3.2 2.8c-6.3 5.3-19 9.5-33 11-3.5.4-13.7.7-22.8.8l-16.5.1-.3-34.8-.2-34.7h16.3c25.5 0 37.8-3.2 47.5-12.4 8.2-7.7 14.7-22.7 16.7-38.6.1-1.4.3-2.6.4-2.7.3-.6 76.1-.1 76.2.5z"/><path d="M439.5 244.6c-10.9 2.1-20.8 7.5-29 15.8-10.8 11-15.4 22.8-15.9 40.6-.7 27.2 12.5 47.2 36.6 55.7 13.4 4.8 38.2 3.8 49.8-1.9 4-2 11.2-6.9 14.4-9.7 2.8-2.6 10.6-12.5 10.6-13.6 0-.3.9-2.4 2-4.8 4.8-10.3 6-29.4 2.6-41.6-5.5-19.7-20.7-34.6-40.6-39.7-8.3-2.1-21.5-2.4-30.5-.8z"/></svg>